<svg width="99" height="24" viewBox="0 0 99 24" fill="none" xmlns="http://www.w3.org/2000/svg">
<g clip-path="url(#clip0_4099_2168)">
<path d="M97.9181 6.23218C98.2874 6.23218 98.5895 6.23218 98.9588 6.29845V10.1437H97.8843C94.761 10.1437 92.8801 11.6686 92.8801 14.9173V23.6024H88.6484V6.49737H92.7457V9.54709C93.5854 7.62442 95.2314 6.23218 97.9181 6.23218Z" fill="white"/>
<path d="M81.1467 6.09944C84.7741 6.09944 87.2254 8.18786 87.2254 12.2652V23.6022H82.9937V12.9613C82.9937 10.7735 81.8858 9.7127 79.7361 9.7127C77.889 9.7127 75.8742 10.9724 75.8742 14.0221V23.6022H71.6426V0H75.8742V8.78452C77.016 7.22653 78.7959 6.09944 81.1467 6.09944Z" fill="white"/>
<path d="M63.2143 23.9999C58.0757 23.9999 54.6504 20.5193 54.6504 15.0496C54.6504 9.58003 58.0424 6.09937 63.2143 6.09937C67.7481 6.09937 70.7708 8.65181 71.2745 12.6629H67.0428C66.6396 10.5413 65.0947 9.57999 63.2143 9.57999C60.6953 9.57999 58.9826 11.3038 58.9826 15.0496C58.9826 18.7955 60.7625 20.5193 63.2143 20.5193C65.1285 20.5193 66.774 19.4916 67.11 17.2375H71.3417C70.8713 21.4143 67.647 23.9999 63.2143 23.9999Z" fill="white"/>
<path d="M47.9184 6.09937C51.5456 6.09937 53.9969 8.18775 53.9969 12.2651V23.6021H49.7657V12.9612C49.7657 10.7734 48.6573 9.71258 46.5078 9.71258C44.6607 9.71258 42.6456 10.9723 42.6456 14.022V23.6021H38.4141V6.49715H42.5113V8.95016C43.6196 7.32585 45.4667 6.09937 47.9184 6.09937Z" fill="white"/>
<path d="M37.9082 23.6021H33.6766C33.4079 23.138 33.2736 22.3425 33.2064 21.5137C32.0645 23.1049 30.1838 23.9999 27.6314 23.9999C23.9372 23.9999 21.3848 22.1767 21.3848 18.8618C21.3848 16.0109 23.1311 13.9888 28.0344 13.5248L30.654 13.2927C32.2661 13.0938 33.1056 12.5966 33.1056 11.3369C33.1056 10.0109 32.4004 9.21536 29.9487 9.21536C27.5307 9.21536 26.5231 9.84523 26.3552 11.9336H22.1908C22.4259 8.32034 24.5752 6.09937 29.9823 6.09937C35.1543 6.09937 37.2029 8.15459 37.2029 11.2375V20.3535C37.2029 21.58 37.438 22.9392 37.9082 23.6021ZM28.6389 21.0165C30.8891 21.0165 33.1056 19.8231 33.1056 16.8397V15.2817C32.6691 15.6795 32.0309 15.8783 31.1242 15.9778L28.8405 16.243C26.4896 16.5082 25.7171 17.3369 25.7171 18.696C25.7171 20.1215 26.6911 21.0165 28.6389 21.0165Z" fill="white"/>
<path d="M9.06793 5.74951C18.1359 5.74951 18.1359 5.74951 18.1359 14.6995C18.1359 23.6495 18.1359 23.6495 9.06793 23.6495C-9.5889e-06 23.6495 -3.96205e-07 23.6495 1.669e-10 14.6995C3.96541e-07 5.74951 -1.25393e-05 5.74951 9.06793 5.74951ZM8.05521 8.12985L10.274 11.4623H10.2739L12.4927 14.7947H10.274L8.0553 11.4623H5.8365L8.0553 14.7947H10.2739L8.05525 18.1272H10.2739L8.05525 21.4596H10.274L12.4927 18.1271L14.7114 14.7947L12.4927 11.4623H12.4928L10.274 8.12985H8.05521ZM3.61765 11.4623L5.83636 14.7947L3.61765 18.1272H5.83641L8.05511 14.7947L5.83641 11.4623H3.61765Z" fill="white"/>
</g>
<defs>
<clipPath id="clip0_4099_2168">
<rect width="99" height="24" fill="white"/>
</clipPath>
</defs>
</svg>
